<mxfile host="drawio-plugin" modified="2023-10-26T00:45:11.124Z" agent="5.0 (Windows NT 10.0; Win64; x64) AppleWebKit/537.36 (KHTML, like Gecko) Chrome/111.0.0.0 Safari/537.36" etag="eJD0o8tY5B5Jmb4tbY9C" version="20.5.3" type="embed"><diagram id="1lX8ebP9p3x4Pj5jLmdL" name="Page-1"><mxGraphModel dx="875" dy="702" grid="1" gridSize="10" guides="1" tooltips="1" connect="1" arrows="1" fold="1" page="1" pageScale="1" pageWidth="850" pageHeight="1100" math="0" shadow="0"><root><mxCell id="0"/><mxCell id="1" parent="0"/><mxCell id="2" value="IConfigurationFactory" style="rounded=1;whiteSpace=wrap;html=1;" parent="1" vertex="1"><mxGeometry x="265" y="150" width="135" height="60" as="geometry"/></mxCell><mxCell id="4" style="edgeStyle=orthogonalEdgeStyle;rounded=0;orthogonalLoop=1;jettySize=auto;html=1;dashed=1;" parent="1" source="3" target="2" edge="1"><mxGeometry relative="1" as="geometry"/></mxCell><mxCell id="3" value="&lt;div style=&quot;background-color: rgb(255, 255, 255);&quot;&gt;&lt;div style=&quot;&quot;&gt;&lt;font&gt;&lt;span style=&quot;font-size: 13.0667px;&quot;&gt;JsonConfigurationFactory&lt;/span&gt;&lt;/font&gt;&lt;font color=&quot;#080808&quot;&gt;&lt;span style=&quot;font-size: 9.8pt;&quot;&gt;&lt;br&gt;&lt;/span&gt;&lt;/font&gt;&lt;/div&gt;&lt;/div&gt;" style="rounded=1;whiteSpace=wrap;html=1;fontFamily=Helvetica;" parent="1" vertex="1"><mxGeometry x="70" y="290" width="195" height="60" as="geometry"/></mxCell><mxCell id="8" style="edgeStyle=orthogonalEdgeStyle;rounded=0;orthogonalLoop=1;jettySize=auto;html=1;entryX=0.5;entryY=1;entryDx=0;entryDy=0;dashed=1;" parent="1" source="7" target="2" edge="1"><mxGeometry relative="1" as="geometry"><Array as="points"><mxPoint x="525" y="250"/><mxPoint x="333" y="250"/></Array></mxGeometry></mxCell><mxCell id="13" style="edgeStyle=orthogonalEdgeStyle;rounded=0;orthogonalLoop=1;jettySize=auto;html=1;entryX=1;entryY=0.5;entryDx=0;entryDy=0;fontFamily=Helvetica;startArrow=diamond;startFill=0;" edge="1" parent="1" source="7" target="2"><mxGeometry relative="1" as="geometry"><Array as="points"><mxPoint x="680" y="320"/><mxPoint x="680" y="180"/></Array></mxGeometry></mxCell><mxCell id="7" value="&lt;div style=&quot;background-color:#ffffff;color:#080808&quot;&gt;&lt;div style=&quot;font-size: 9.8pt;&quot;&gt;ConfigurationFactoryDecorator&lt;/div&gt;&lt;/div&gt;" style="rounded=1;whiteSpace=wrap;html=1;fontFamily=Helvetica;" parent="1" vertex="1"><mxGeometry x="415" y="290" width="220" height="60" as="geometry"/></mxCell><mxCell id="10" style="edgeStyle=orthogonalEdgeStyle;rounded=0;orthogonalLoop=1;jettySize=auto;html=1;entryX=0.5;entryY=1;entryDx=0;entryDy=0;" parent="1" source="9" target="7" edge="1"><mxGeometry relative="1" as="geometry"/></mxCell><mxCell id="9" value="&lt;div style=&quot;background-color:#ffffff;color:#080808&quot;&gt;&lt;div style=&quot;font-size: 9.8pt;&quot;&gt;&lt;span style=&quot;color:#000000;&quot;&gt;FileConfigurationFactory&lt;/span&gt;&lt;/div&gt;&lt;/div&gt;" style="rounded=1;whiteSpace=wrap;html=1;fontFamily=Helvetica;" parent="1" vertex="1"><mxGeometry x="285" y="410" width="175" height="60" as="geometry"/></mxCell><mxCell id="12" style="edgeStyle=orthogonalEdgeStyle;rounded=0;orthogonalLoop=1;jettySize=auto;html=1;entryX=0.5;entryY=1;entryDx=0;entryDy=0;" parent="1" source="11" target="7" edge="1"><mxGeometry relative="1" as="geometry"/></mxCell><mxCell id="11" value="&lt;div style=&quot;background-color:#ffffff;color:#080808&quot;&gt;&lt;div style=&quot;font-size: 9.8pt;&quot;&gt;&lt;span style=&quot;color:#000000;&quot;&gt;TestWeatherServiceConfigurationFactory&lt;/span&gt;&lt;/div&gt;&lt;/div&gt;" style="rounded=1;whiteSpace=wrap;html=1;fontFamily=Helvetica;" parent="1" vertex="1"><mxGeometry x="555" y="410" width="260" height="60" as="geometry"/></mxCell></root></mxGraphModel></diagram></mxfile>